<svg version="1" xmlns="http://www.w3.org/2000/svg" width="1493.333" height="1493.333" viewBox="0 0 1120.000000 1120.000000"><path d="M601.5 372c-5.6 2.9-10.6 7-12.7 10.6-1.1 1.9-3.2 4-4.6 4.6-3 1.5-4 5.1-2.1 7.4.7.8 2.9 2.2 4.8 3l3.6 1.6-3.5 2.9c-1.9 1.5-8.1 6.4-13.7 10.8-12.8 10.1-12.9 10.2-21.6 18.3-4 3.7-7.5 6.8-7.8 6.8-1.8 0-6.9-6.3-6.9-8.6 0-1.4-.5-3.4-1.1-4.6-1.3-2.4-6.7-4.8-10.9-4.8-3.6 0-3.6-.2-.7-3.4 5.6-6 4.8-16.1-1.6-21-6.5-5-22.3-7.1-26-3.5-.7.8-3 2.5-5 3.9-2.4 1.6-4.3 4-5.3 6.7-4.4 11.4 4.5 20.3 20.2 20.3 3 0 3.3.2 2.6 1.7-.5 1-1.2 3.7-1.6 5.9-.3 2.3-2.1 7.7-4 12-3.2 7.7-3.4 7.9-6.7 7.8-3.6-.2-12.4-1.3-14.9-1.9-.8-.2-3.5-.7-6-1-4.6-.6-7.8-1.1-13-2-3.4-.6-37-5.5-37.6-5.5-.2 0 0-1 .5-2.3 1-2.6.7-8.2-.7-11.7-1.5-3.9-9.7-11.7-13.7-13-4.2-1.4-12.1-.8-16.1 1.3-4.5 2.3-8.4 6.7-11 12.2-2.7 5.8-3 9.2-1 13.9 2.8 6.6 13.4 11.7 23.2 11 3.6-.3 4.4 0 4.4 1.4 0 3.4 3.1 6.2 8.5 7.8 6.2 1.7 18.5 10.1 24.4 16.6 2.2 2.4 5 5.4 6.3 6.8 2.2 2.4 9.8 12.1 9.8 12.6 0 .7-37.5-1.1-41-2.1-.8-.2-4-.6-7.1-1-3.1-.3-6.7-.8-8-1-1.3-.3-4.4-.8-6.9-1.1-2.5-.3-6.3-.9-8.6-1.3-4.6-.9-12.8.8-14.9 3-.7.8-1.6 2.8-2 4.5-.5 2.7-.1 3.8 2.4 6.7 1.7 1.9 3.1 3.9 3.1 4.5 0 .5.7 1.5 1.6 2.3 2 1.7 5.9 9.4 7.3 14.6 1.8 6.8 6.8 9.3 16.4 8.2 7-.8 10.6-3 11.4-7 .6-3.3.3-3.3 13.3-1.4 2.8.4 7.6 1 16.5 2.2 3.3.4 6.3.8 6.8.9.4.1 2.3.2 4.2.3 3 .1 3.7.6 5 3.7 1.8 4.5 1.8 4.4 0 4.4-.8 0-2.5 1-3.7 2.2-4.6 4.6-10.4 5.8-26 5.3-7.9-.3-16.5-.7-19.3-.9-19.9-1.8-61.8-2.8-66.2-1.5-4.5 1.3-6.7 4.9-5.9 9.4 1.1 5.9 4.1 7 22.6 8 12 .7 19.2 1.2 27 2 8.5.9 33.5 6.1 42.9 9 4.7 1.4 9.1 2.5 9.8 2.5.8 0 3.3.8 5.6 1.9 2.3 1 6.3 2.4 9 3.2 5 1.4 6 2.4 2.6 2.6-5.8.5-9 2.5-11.4 7.3-2.2 4.4-2.7 4.7-5.7 4.5-1.8-.2-8.5-.6-14.8-1-6.3-.4-11.8-1.1-12.1-1.6-.3-.5-.1-4.3.3-8.6 1-9-.1-11.4-5.8-13.3-5-1.7-15.8-.9-18.3 1.4-1 .9-3.3 6-5.1 11.2-1.7 5.3-4.2 11.9-5.5 14.7l-2.4 5.2v-3.8c-.2-10-8.6-16.7-21.1-16.7-7.8 0-13.4 2.1-16.7 6.3-1.5 2-2.1 2.2-3.1 1.1-2-2.1-6.5-1.7-12.4 1.3-9.5 4.8-21.3 4.4-27.4-.9-7.1-6.3-9.9-16.4-9.2-33.2.4-9.3.8-11.2 3.7-17.1 4.7-9.5 8.8-12 19.5-12 6.8 0 8.9.5 13.4 2.8 6 3 10.3 3.4 12.6 1.2 1.9-1.9 6.6-16.5 6.6-20.5 0-4.6-1-6-6.1-8.6-7.9-4-15.3-5.4-27.9-5.4-13 0-19 1.3-28.5 6.3-12.5 6.7-22.4 20.8-26 37.2-2.4 10.8-1.7 38.2 1.3 47.2l2 6.3H221v-45.4c0-40-.2-45.6-1.6-47-1.2-1.3-4-1.6-14.4-1.6s-13.2.3-14.4 1.6c-1.4 1.3-1.6 6.7-1.7 43.2 0 22.9-.2 41.2-.4 40.7-.2-.6-3.1-10.9-6.4-23-8.6-31.6-17.8-60.7-19.3-61.6-2.2-1.4-30.2-1.1-32.1.3-1.7 1.3-14.3 41.6-23.3 74.8-4.2 15.4-5.4 18.9-5.4 16.2 0-2-3.1-4.2-6-4.2-1.6 0-5.2 1.2-8.2 2.7-9.5 4.8-21.3 4.4-27.4-.9-7.1-6.3-9.9-16.4-9.2-33.2.4-9.3.8-11.2 3.7-17.1 4.7-9.5 8.8-12 19.5-12 6.8 0 8.9.5 13.4 2.8 6 3 10.3 3.4 12.6 1.2 1.9-1.9 6.6-16.5 6.6-20.5 0-1.5-.3-3.6-.6-4.5-.8-2.1-8.9-6.1-16.1-8-7.8-2.1-27.2-2-34.4.1-14.4 4.2-25.1 13.1-31.7 26.3-6.2 12.3-7.5 20-7 39.9.4 14.9.7 17.5 3.2 24.7 6.4 18.7 15.7 28 33 33 8.4 2.4 32.9 1.7 40.1-1.2 4.2-1.6 5.3-1.7 6.3-.6 1.8 1.8 27.1 1.9 29.6 0 1.2-.9 2.4-4.5 3.7-10.8 1-5.1 2.1-10.4 2.4-11.7.5-2.1 1-2.2 10.4-2.2h10l1.1 5.7c.7 3.2 1.8 8.7 2.5 12.2s1.9 6.7 2.7 7.2c.7.5 24.6.9 53 .9 56.8 0 54.8.2 54.8-6v-2.9l5.8 3.5c10.3 6.2 17.1 7.7 34 7.2 13.1-.4 15.5-.8 22-3.3s7.4-2.6 9-1.2c7.7 6.7 25.3 6.3 31.1-.7 1.1-1.4 1.6-1.3 4.2.6 3.3 2.5 10.8 3 21.9 1.4 7.8-1.1 37.5-1.3 44.5-.3 8 1.2 14.4 2.7 24 5.7 10.7 3.4 13.4 4.6 19.7 8.3 4 2.4 5.9 2.9 11.2 2.8 3.5 0 8.3-.7 10.7-1.5 3.9-1.4 4.4-1.3 5.5.2 1.6 2.1 3.2 9 3.8 15.7.2 2.7.5 5.3.5 5.7.3 2 3.7 3.8 7.1 3.8 4.5 0 7-2.6 7-7.5.1-8.4 7.9-37.3 12.8-47.3 1.5-3 4.3-7.3 6.4-9.6l3.8-4.1-.5 4c-.3 2.2-.7 6-1 8.5-.3 2.5-.8 11.5-1.1 20l-.6 15.6 2.6 3.1c1.5 1.7 2.6 3.5 2.4 4-.2.7.9 8.9 1.8 13.8.5 3.1 1.5 15 2.1 26.5.5 11.6.5 11.6.3 22.9-.1 4.4.1 8.5.5 9 3.9 6.4 14.7-1.9 13.1-10.1-.3-1.6-1.5-4.3-2.7-5.9l-2.1-3 2.6-3.9 2.6-4v-46.9l4.8.7c8.3 1.1 14.2.6 17-1.5 3.7-2.7 4.7-6.5 2.8-10.3-.8-1.7-1.2-2.8-.8-2.6.4.2 2.9.7 5.6 1 2.7.4 5.2.9 5.5 1 .3.2 4.7.7 9.6 1.1 5 .4 9.1.8 9.3 1 .6.5 1.6 10.1 1.5 13-.1 1.6-.5 5.1-.9 7.7-.5 4.3-.4 4.8 2.6 7.5 4.1 3.6 6 4.3 8.8 3 2.5-1.2 2.5-.7 2.3-15 0-10 .1-10.8 1.7-10.2 8.8 3.8 31.3 4.3 44.7 1 3.9-.9 8.4-1.9 10-2.2 4.8-.8 6.6-2.5 11.5-11.2l4.6-8.3 30.5.1c37.1.2 34.4 1.3 34.2-14.6-.1-5.8-.1-10.4.1-10.2.2.2 2 5.1 4 10.9 2.1 5.8 4.4 11.3 5.3 12.2 1.4 1.6 5.3 1.7 48.8 1.8 44.5 0 47.4-.1 49.6-1.9 2.1-1.7 2.2-2.5 2.2-14.5 0-16.4.3-16-14-16.1h-10.8l-.3-7.3-.3-7.2h8.8c11-.1 12.4-1 12.7-7.9.1-2.8.5-5.3.8-5.6.2-.3.5.1.5.7 0 .7.3 3.1.6 5.3.3 2.2 1.3 9.4 2.1 16 .9 6.6 1.8 13.1 2 14.5.6 3.5 1.3 8.6 2.1 15.3 1.1 8.8.9 8.7 27.2 8.7 25.3 0 25.7-.1 26.2-8.2.1-2.3.4-4.4.6-4.8.2-.4.7-2.9 1.1-5.6 1.8-14 1.7-14 4.7 1.1 1.6 7.9 3.5 14.7 4.4 15.7 1.4 1.6 3.8 1.8 23.4 1.8 12 0 22.9-.4 24.2-.9 2.6-1 3.1-2.3 4.2-11.1.4-2.5.8-5.6 1-7 .3-2.3 2.6-19.2 4-30 .4-2.5.8-5.4.9-6.5.2-1.1.7-4.5 1.1-7.5.8-6.5 1.3-7.2 2.7-4.5 2 3.6 8.2 8.9 15.2 13.1l6.9 4.2-11.1-.1c-15.5 0-15.6.1-14.9 14.8.7 13.7 2.7 20.2 8 25.5 11.3 11.6 35 15.5 55.2 9.3 17.8-5.6 23.8-14.5 23-34.6-.4-9.6-.7-11.6-2.6-17.6-2.4-7.4-5.5-10.7-18.4-19.2l-8.9-5.9h12c15.3 0 15.6-.2 15.3-12.1-.3-11.4-2.4-18.4-6.9-22.9-12.5-12.5-45.7-15.1-63.7-5-2.9 1.7-5 2.4-4.7 1.7.2-.7-.5-2.3-1.6-3.5-2-2.1-2.8-2.2-19.8-2.2-13.2.1-18.1.4-19.5 1.4-1.8 1.4-3.7 9.7-5.3 23.6-.8 6.7-1.4 7.7-1.5 2.4 0-2.1-.2-4.6-.3-5.4-.2-.8-.6-4.9-1-9-.9-9.8-1.3-10.9-4.3-12.1-1.3-.5-10.4-.9-20.2-.9-19.4 0-21.2.5-21.8 5.6-.2 1.6-.8 5.1-1.3 7.9-.5 2.7-1.2 7.7-1.6 11-.8 7.3-1.4 8.3-1.5 2.4 0-2.4-.2-5.3-.3-6.4-.2-1.1-.6-5.4-1-9.5-.5-4.4-1.4-8.2-2.4-9.3-1.4-1.6-5.8-1.7-64.7-1.7-58.8 0-63.4.1-65.4 1.7-1.9 1.6-2.1 3-2.3 13.2l-.3 11.4-3.9-10.9c-5.8-16.1-4.8-15.4-23.6-15.4-14.7 0-15.8.1-17.6 2.1-1.8 2-1.9 4.3-2 43.8-.1 22.9-.2 41.9-.3 42.3 0 .5-4.9.8-10.7.8-5.8 0-10.3-.4-10-.8.8-1.3-2.2-13.8-4.5-18.6-1.1-2.4-3.6-6-5.5-8-1.9-1.9-3.4-3.9-3.4-4.3 0-.4 1.7-2.5 3.8-4.5 2.1-2 5.1-6 6.6-8.9 3.5-6.4 9.6-30.1 9.6-37.3 0-10.2-4.3-19.1-11.3-23.5-3.6-2.2-12.8-5-19.2-5.8-2.2-.2-6.7-1.3-10-2.2-5.9-1.8-13.7-2-24.6-.7-5.6.7-20 6.7-24.7 10.3-4.1 3.1-9.1 9.8-9.8 13.2-1.5 7-1.7 7.1-14 7.1-6.2 0-12.4.4-13.8 1-1.9.7-2.6.6-2.7-.3-.2-3.3-1-10.5-1.3-12.7-.3-1.4-.5-3.7-.5-5.1-.1-1.5-1.2-3.7-2.5-5l-2.3-2.2 2.5-2.2c2.1-1.8 2.5-2.9 2.1-6.1-.2-2.1-.4-8.9-.4-14.9 0-13.4 1.9-20.2 10.6-38.3 3.2-6.7 5.9-12.6 5.9-13.2 0-.5 2-1.8 4.4-2.8 7.2-3.3 11.6-11.1 10.1-18.2-.8-3.6-7.6-10.8-10.8-11.4-7-1.4-9.8-1.4-13.2.4zM553 483.9c1.9 6.9 4.9 20.5 4.6 20.9-.4.3-15.2-10.6-18.7-13.9-1.4-1.3-4.2-3.9-6.2-5.7-2.1-1.7-3.3-3.2-2.7-3.2.5 0 1.1-.1 1.3-.1.8-.4 14.5-2.4 17.2-2.5 2.9-.1 3.3.2 4.5 4.5zm-48.5 4.1c-.3.5-1.6 1-2.8.9-2-.1-2-.2.3-.9 1.4-.4 2.6-.8 2.8-.9.2-.1 0 .3-.3.9zm175.3 6.6c8.3 4.9 9.1 15.7 2 25.6-1 1.5-3.9 4.4-6.4 6.4-4.1 3.4-4.6 3.6-6.2 2-1-.8-2.9-3.7-4.2-6.2-4.9-10-1.9-23.7 6-27.6 4.4-2.1 5.6-2.2 8.8-.2zm377.9 35.6c-.2 1.3-.4.5-.4-1.7-.1-2.2.1-3.2.4-2.3.2 1 .2 2.8 0 4zM528 531.6c0 .9-5.3 8.4-5.9 8.4-.3-.1-1.7-.7-3-1.4-2-1.1-2.1-1.5-.9-2.2.8-.5 2.5-2.3 3.8-4.1 1.9-2.6 2.6-3 4.2-2.2 1 .5 1.8 1.2 1.8 1.5zm355.3-.6c.3.3.8 3.1 1.1 6.3.7 5.7.7 5.7-1.6 4.9-1.3-.5-5.2-.8-8.8-.7-3.6.1-7 0-7.6-.2-1-.4-1.9-8.7-1-10.1.5-.8 17.2-.9 17.9-.2zm-262.2 17.2c0 9.4-.3 10.9-2.7 15.2l-2.7 4.8-1.6-2.6c-.9-1.3-3.4-4.3-5.5-6.6l-3.8-4.1 3.3-4.2c3.7-4.8 12.3-13.6 12.7-13.2.2.1.3 4.9.3 10.7zm-471.7 14.2l.7 3.6H146c-2.2 0-4-.2-4-.4 0-1 3.1-14.2 3.7-15.6.6-1.4 2 3.5 3.7 12.4zm338.7-8.9c2.4.9 5 1.8 5.8 2 1.1.5 1 .9-.6 2.4-1 1-3.2 4.4-4.7 7.4-3 6.2-9.7 13.7-14.3 16.1-2.7 1.3-3.3 1.3-4.9 0-1.1-.8-1.4-1.4-.9-1.3 5.9.8 10.3-2.8 11.1-9.1.4-2.5 1.2-5.6 1.8-7 1.3-2.8 1.3-4.5.2-7.7-.7-2.3-.1-4.3 1.3-4.3.5 0 2.8.7 5.2 1.5zm69.6 8.2c-.6.5-4.7-1.9-4.7-2.7 0-.3 1-1 2.3-1.5 1.9-.9 2.2-.7 2.5 1.3.2 1.3.1 2.6-.1 2.9zM674 571c7.7 7.5 8.9 10.1 8.4 17.5-.9 12.4-4.9 23.2-10.4 27.8-2.6 2.2-3.5 2.5-5.7 1.6-3.9-1.5-8.3-4.7-13.5-10.1l-4.7-4.8.3-10.4c.5-12.4 2.2-17 8.8-23.7 6-6.2 8.7-5.8 16.8 2.1zm385.6 11.2c.8 2.8.9 9.6 0 10.5-1.2 1.2-1.7-.6-1.9-6.6-.2-6.2.6-7.9 1.9-3.9zm-461.5 16.1c1.1 5.6 2.3 11.2 2.6 12.4.3 1.6.1 2.3-.9 2.3-.7 0-3 .8-4.9 1.8l-3.6 1.8.3-4c.3-5.3 1.2-15.6 2-23.1.8-7.3 1.4-6 4.5 8.8z"/><path d="M519 671c-1.5 1.5-2 3.4-2.1 7.2-.5 36.6-.6 35.8 6.2 35.8 6 0 8.9-3.5 8.9-10.8.1-3.1.1-6.8.2-8.2 0-1.4-.2-6.9-.5-12.4-.4-7.3-1-10.3-2.3-11.7-2.3-2.5-7.8-2.5-10.4.1z"/></svg>