<svg version="1" xmlns="http://www.w3.org/2000/svg" width="3200" height="3200" viewBox="0 0 2400.000000 2400.000000"><path d="M2273.5 1136c-2.2.5-19.5 5.7-38.5 11.5-19 5.9-36.5 11.3-39 12-2.5.7-43.6 13.3-91.5 28-47.8 14.6-91.3 27.7-96.5 29-24.6 6.1-44.2 10-60.5 12.1-2.2.3-6.5.9-9.5 1.4-3 .5-8.6 1.2-12.5 1.5-3.8.3-8.8.8-11 1-2.2.2-7.1.7-11 1-3.8.3-8.6.8-10.5 1-3.3.4-16.5 1.4-27.5 2-2.7.2-397.4.4-877.1.4-844.9.1-872.3.2-877.7 1.9-6.5 2.2-11.1 5.8-15.7 12.4-2.7 3.9-3.3 5.8-3.4 10-.1 8 2.1 14.2 7 19.7 7.9 8.8 3.7 8.4 80.2 8.2l67.2-.2.1 5.8c.1 3.2.2 12.3.4 20.3.1 8 .3 23.4.4 34.2l.1 19.8h4.7c2.8 0 5.3-.6 6.3-1.5 1.4-1.3 5.5-1.6 23.1-1.8 18.4-.2 23 0 32.9 1.9 25.2 4.7 39.6 9.8 69.5 24.4 18.4 9.1 33.2 19.2 42.2 28.8l6.1 6.7 3.6-1.9c3.5-1.8 21.5-16.3 35.9-28.8 4-3.5 13.8-11.4 21.8-17.6l14.6-11.3-.4-21.2c-.1-11.7-.5-29-.7-38.5-.2-12.2 0-17.2.8-17.3 2.9-.3 20.5-.7 69.6-1.4l53.5-.7 24.3 83.4c13.3 45.8 25.2 86.7 26.3 90.8 3.5 12.8 8.1 19.7 18.3 27.5l3.9 3 268.6-.3c147.7-.1 270.4-.5 272.6-.8 4.3-.7 7.2-2.4 15.1-9.1 4.7-4 5.3-5 8.7-15 3.1-9.3 11.4-37 19.2-63.8 1.3-4.4 5.3-18.1 9-30.5 3.7-12.4 7.3-24.5 8-27 .7-2.5 3.3-11.5 5.8-20s5.1-19 5.8-23.3c1.1-7.4 1.4-8 5.4-11.3l4.2-3.4h133.5c126.5 0 133.5.1 133.5 1.7 0 1 .1 12.8.2 26.3l.1 24.5 14.8 6.4c8.1 3.6 17.4 7.7 20.7 9.2 6.2 2.8 34.9 15.4 62.8 27.6l15.7 6.9 10.8-5.3c5.9-2.9 13.1-6.2 16-7.3 2.9-1.1 7.4-3.1 10.1-4.4 5.7-3 19.8-6.7 37.3-9.9 9.2-1.7 17-2.4 29-2.6 16.3-.2 16.4-.2 24.3 2.9 12.9 5.2 16.2 6 17.5 4.5.8-1 1-12.8.6-40.4l-.5-39.1 3.2-.1c1.8-.1 5.2-.2 7.7-.4 2.5-.1 12.4-.5 22-.9 17.7-.7 28.4-1.4 33-2.1 1.4-.2 5-.6 8-1 3-.3 7.3-.8 9.5-1.1 2.2-.3 5.1-.7 6.5-.9 1.4-.2 5.7-.8 9.5-1.4 8.9-1.3 14-2.1 19-2.7 11.4-1.5 78.5-19.4 108.5-28.9 18.4-5.9 43.9-13.8 56.5-17.6 12.7-3.9 30.9-9.4 40.5-12.4 9.6-2.9 28.9-8.8 42.7-13l25.3-7.6 7.1 5.5c3.9 3.1 7.4 5.4 7.7 5.2.4-.2 7.5-2.5 15.7-5.1 8.3-2.6 15.3-5.2 15.6-5.8.4-.5 1-3.9 1.4-7.4.5-5.2 1.1-6.5 3-7.6 7.3-3.9 13-12.1 14.1-19.9 1.2-9.2-6.8-22.4-16.7-27.3-5.1-2.6-10.7-3.1-18.4-1.5zm-1282 156c-1.4 6.3-2.8 12.6-3.1 14-.2 1.4-1.8 8.6-3.4 16-1.7 7.4-3.2 14.5-3.5 15.7-.3 1.3-.7 3.3-1 4.5-1 4.3-1.6 7.3-2.1 9.8-.2 1.4-1.3 5.7-2.2 9.6l-1.8 7.2 7 1.6c3.9.9 8 1.8 9.1 2.1 1.1.2 7.3 1.5 13.8 2.9 6.5 1.4 13.2 2.8 14.9 3.1 5.6 1 6 1.7 3 5-1.5 1.7-6.2 7.1-10.6 12-4.3 5-9.3 10.6-11 12.5-1.7 1.9-5.1 5.7-7.5 8.5-2.4 2.7-7.4 8.3-11 12.4-3.6 4.1-7.5 8.5-8.6 9.7-1.1 1.3-4.1 4.7-6.7 7.6-2.6 2.9-5.7 6.4-6.9 7.8-1.1 1.4-3.9 4.6-6.2 7.1-2.3 2.5-6.5 7.2-9.4 10.5-11.4 13.1-11.4 13.2-10.8 10.4.4-2.1 6.7-32.6 8.1-39.5.7-3.8 7.5-36 7.9-38 .3-1.1.8-4 1.1-6.5l.6-4.5-13.1-2.9c-7.2-1.6-13.3-2.8-13.6-2.8-.2 0-1.9-.4-3.7-.9-1.8-.6-4.2-1.2-5.3-1.5-1.1-.2-3.1-.7-4.5-1-1.4-.3-3.7-.8-5.2-1.1-1.6-.3-2.8-1-2.8-1.5s1.8-2.8 3.9-5.1c2.2-2.3 4.9-5.3 6.1-6.7 7-8 12.8-14.7 15-17 1.4-1.4 4.8-5.3 7.5-8.5 2.8-3.3 5.7-6.7 6.5-7.5.8-.9 3.7-4.1 6.3-7.1 2.7-2.9 6.3-7 8-8.9 2.8-3 8.7-9.8 15.4-17.6 1.9-2.2 11.6-13.2 17.7-19.9 1.9-2.2 3.6-4.5 3.7-5 .1-.6.3-.3.5.5s-.7 6.7-2.1 13z"/><path d="M1452.5 1306.1c-10.7 1-38.4 13.7-46.7 21.2-2.4 2.1-6.2 5.7-8.5 7.8-7.7 7.1-17 19.3-20.5 26.9-7.8 17.1-10 26.7-9.9 42.5.1 6.6.6 13.6 1.1 15.5.5 1.9 1.1 5.3 1.5 7.4 1.2 8.4 1.2 8.4 8.3 23.6 8.3 17.7 25.7 35.4 43.4 44.2 10.4 5.1 26.3 10.6 36.6 12.4 1.3.3 7.4 1.5 13.5 2.9 6.2 1.3 12.3 2.6 13.7 2.9 4.2.8 7.3 1.5 12 2.6 2.5.5 5.6 1.2 7 1.4 1.4.3 9.9 2.1 19 4.1 9.1 2 17.6 3.8 19 4 1.4.2 10.8 2.2 21 4.4s19.6 4.2 21 4.4c1.4.3 12.2 2.6 24 5.2s22.6 4.9 24 5.1c8 1.6 25.5 5.5 25.9 5.9.3.3.6 1.6.8 2.8 2.8 21.3 10.4 42 21.2 58.1 6.9 10.1 16.5 22 21.3 26.4 2.3 2 5.8 5.3 7.7 7.2 6.5 6.2 19.4 14.8 31.2 20.7 8.5 4.2 20.8 9.2 24.4 9.9 1.1.2 5.2 1.1 9 1.9 11.5 2.4 12.4 2.5 28 3 27.1.7 56.1-5.3 75.6-15.8 21.3-11.4 44.7-32.6 58.2-52.7 6-8.9 7.9-12.8 12.4-25.8 7.2-20.7 9.1-30.4 9.2-47.4.2-10-.3-16.6-1.8-24.5-1.1-5.9-2.3-12.3-2.6-14-.7-4.2-8-20.3-12.2-27.1-1.8-2.9-3.3-5.5-3.3-5.8 0-1-6.7-10.4-14.5-20.1-10.3-12.8-26-24.9-45.7-35.1-13.9-7.2-34-14.3-45-16-5.4-.8-46.7-.7-51.8.1-1.4.3-7.8 2.1-14.3 4.1-22 6.7-42.4 16.6-54.2 26.2l-5.3 4.4-5.4-1.9c-4.8-1.7-14.7-5.7-23.3-9.6-1.7-.8-4.4-1.9-6-2.5-2.9-1.1-23.7-9.8-30-12.5-1.6-.7-16.7-7-33.5-14.1-16.8-7-31-13.2-31.6-13.8-.6-.6-1.8-3.1-2.8-5.6-2-5.3-6.8-15.3-7.6-16-.3-.3-1.2-1.8-2-3.4-2.6-5-18.2-19.8-27-25.7-10.8-7.2-23.2-13.4-34-17.1-7.9-2.7-9.7-2.9-26-3.2-9.6-.1-20.6.1-24.5.5zm380 140.4c32 8.4 54.9 27.4 66.8 55.5 2.5 5.8 4.8 12.4 5.1 14.5.3 2.2 1.1 6.5 1.7 9.5 1 5 .8 12.8-.7 27-.7 7.4-7.2 24-12.7 32.9-6.8 11-18.9 23.4-29.9 30.5-9.9 6.4-26.3 14.4-31.1 15-1.8.3-4.2.7-5.4 1-12.3 2.7-27.3 2.5-41.3-.5-32.8-7-64.4-35.9-74.5-67.9-2.7-8.8-3.4-13.3-3.6-26-.2-9 .6-14.4 3.3-23 11.2-35 36.5-59.1 73.3-69.6 6.9-2 10-2.3 22.5-2.2 12.7.2 16 .6 26.5 3.3z"/><path d="M1802.5 1508c-10 1.1-19.1 7.2-25.3 16.8-3.3 5.2-3.5 6-3.4 13.9 0 7.3.3 8.9 2.9 13.5 6.3 11.2 20.1 18.6 32.7 17.6 8.1-.7 20.1-7.1 24.7-13.2 7-9.2 7.7-24.4 1.6-33.5-4-6.2-12.7-12.4-20.3-14.4-3.3-1-6.2-1.6-6.5-1.6-.2.1-3.1.5-6.4.9zM269.5 1396.1c-7.2.6-11.8 1.8-29 7.6-24.9 8.4-45.9 21.9-62 39.9-14.4 16-22.6 30.5-29.9 52.5-5.7 17.5-6.8 23.7-6.1 35.2.3 5 .7 12.8 1 17.2.2 4.4.6 8.9.9 10 .2 1.1.7 4 1.1 6.5.4 2.5.9 5.2 1 6 .5 2.4 7.4 20 10.2 26 5.7 12.1 20 31.8 29.9 41.1 3.2 3 6.6 6.2 7.5 7.1 2.6 2.4 15.7 12 19.9 14.5 9.2 5.4 15.8 8.7 24.3 11.9 9.1 3.5 10.4 3.9 16.2 5 1.7.2 4.7.9 6.7 1.5 5.9 1.5 15.2 2.3 28.8 2.3 11.3.1 15.1-.2 29.2-2 2.4-.3 10.2-2.1 17.3-4.1 7.2-1.9 13.5-3.6 14-3.7.9-.1 9.1-4.5 20.5-10.9 1.9-1.1 6.4-4.2 10-7.1 3.6-2.8 7.2-5.5 8-6.1.8-.5 6.7-6.3 13-12.7 16.3-16.4 23.8-27.9 30.3-46.2 4.4-12.6 5.8-17.3 8.4-29.6 1-4.4 1-33.9.1-40-2.4-15.7-6.3-27.9-13.3-41.5-3-6-11.5-18.8-15.9-24.1-2.8-3.4-6.4-7.8-8.1-9.9-4.3-5.6-6.7-7.6-19-16.4-15.1-10.8-33.4-20-49.1-25-7.1-2.2-14.2-4.3-15.9-4.6-4.3-.9-40.5-1.2-50-.4zm30.5 47.4c18.7 1.3 41 9.9 56.4 21.7 9.9 7.6 8.7 6.4 16.8 17.3 9 12.2 15.2 26.6 17.3 40.5.3 1.9.9 5.1 1.2 7 .4 1.9.7 3.7.6 4-.1.3-.4 3.4-.7 7-.4 3.6-.9 8.7-1.2 11.5-.9 8.5-6.9 24-13.1 33.9-7.4 11.8-19.2 23.6-30.8 30.8-10.5 6.5-25.3 13.6-29.9 14.3-1.7.2-4.2.6-5.6.9-20.3 4.5-46.5.7-65-9.2-11.1-6-29.3-21.5-34.7-29.6-1.5-2.3-3.4-5-4.4-6.1-3.4-4.2-8.8-15.4-11.5-24-2.4-7.8-3.4-15.4-3.7-27-.1-4.5 1.4-16.5 2.3-18.9.5-1.2 2.6-6.4 4.6-11.6 6-15.2 18.1-31.4 30.7-41.4 9.2-7.3 26.4-15.8 39.2-19.3 5.3-1.5 19.3-3.2 22-2.6.6.1 4.8.4 9.5.8z"/><path d="M288.5 1508c-10 1.1-19.1 7.2-25.3 16.8-3.3 5.2-3.5 6-3.4 13.9 0 7.3.3 8.9 2.9 13.5 6.3 11.2 20.1 18.6 32.7 17.6 8.1-.7 20.1-7.1 24.7-13.2 7-9.2 7.7-24.4 1.6-33.5-4-6.2-12.7-12.4-20.3-14.4-3.3-1-6.2-1.6-6.5-1.6-.2.1-3.1.5-6.4.9z"/></svg>